<svg width="495" height="91" viewBox="0 0 495 91" fill="none" xmlns="http://www.w3.org/2000/svg">
    <path fill-rule="evenodd" clip-rule="evenodd" d="M76.3515 91H0V75.7899L50.4211 17.5499H1.57671V0H76.357V15.2101L25.9359 73.4501H76.357L76.3515 91ZM276.252 91H210.378V0H230.548V72.7997H276.252V91ZM477.313 91H494.469V0H474.564V56.0298L431.606 0H413.011V91H432.916V33.15L477.313 91ZM338.261 0.218715C327.939 1.01936 318.16 5.13481 310.403 11.9425C302.646 18.7499 297.333 27.8798 295.266 37.9509C293.202 48.022 294.494 58.4868 298.954 67.7633C303.411 77.0395 310.791 84.6229 319.976 89.3665L325.085 75.3254L326.682 70.9296C321.555 67.6526 317.633 62.816 315.506 57.143C313.377 51.4701 313.155 45.2658 314.876 39.4581C316.595 33.6501 320.164 28.5507 325.045 24.9225C329.926 21.294 335.86 19.3319 341.959 19.3295C348.055 19.3271 353.991 21.2843 358.875 24.9086C363.762 28.5331 367.333 33.6299 369.057 39.4363C370.781 45.243 370.565 51.4473 368.44 57.122C366.316 62.7966 362.399 67.6363 357.275 70.9176L358.878 75.3254L363.983 89.3633C373.736 84.3276 381.432 76.1014 385.773 66.0775C390.117 56.0539 390.834 44.8491 387.808 34.36C384.779 23.8711 378.195 14.7425 369.165 8.52096C360.135 2.29913 349.218 -0.633853 338.261 0.218715ZM141.663 39.4995L164.637 0H188.265L135.339 91H111.71L129.327 60.7098L99.4495 0H122.224L141.663 39.4995Z" fill="black"/>
</svg>
